<?xml version="1.0" encoding="UTF-8"?>
<svg xmlns="http://www.w3.org/2000/svg" width="461" height="500" viewBox="0 0 461 500" fill="none">
    <path d="M460.032 69.0728H306.956V80.8455H437.271L289.69 295.911C282.625 304.545 279.486 315.534 279.486 326.524V456.824L180.579 485.082V327.313C180.579 316.324 176.653 305.334 170.375 296.7L22.7931 80.851H123.276V69.0782H0.0322266L160.17 302.984C165.665 310.049 168.021 317.899 168.021 326.533V500L291.265 466.248V327.32C291.265 318.686 294.405 310.052 299.117 302.988L460.032 69.0728Z"
          fill="#4450FF"></path>
    <path d="M218.255 102.824L210.404 94.9732L183.713 121.661L182.93 52.5879H171.152L171.939 121.661L145.248 94.9732L136.613 103.607L177.434 144.423L218.255 102.824Z"
          fill="#4450FF"></path>
    <path d="M171.939 0H183.714V11.7727H171.939V0Z" fill="#4450FF"></path>
    <path d="M171.939 23.5493H183.714V35.3221H171.939V23.5493Z" fill="#4450FF"></path>
    <path d="M311.667 196.226L303.032 187.592L276.341 214.28V145.99H264.564V214.28L237.877 187.592L229.238 196.226L270.846 237.043L311.667 196.226Z"
          fill="#4450FF"></path>
    <path d="M264.569 116.171H276.343V127.944H264.569V116.171Z" fill="#4450FF"></path>
    <path d="M264.569 92.6206H276.343V104.393H264.569V92.6206Z" fill="#4450FF"></path>
    <path d="M201.763 367.342H213.537V379.115H201.763V367.342Z" fill="#4450FF"></path>
    <path d="M201.763 394.811H213.537V406.583H201.763V394.811Z" fill="#4450FF"></path>
    <path d="M201.763 339.864H213.537V351.637H201.763V339.864Z" fill="#4450FF"></path>
    <path d="M201.763 422.289H213.537V434.061H201.763V422.289Z" fill="#4450FF"></path>
</svg>