<?xml version="1.0" encoding="UTF-8"?> <svg xmlns="http://www.w3.org/2000/svg" width="477" height="479" viewBox="0 0 477 479" fill="none"> <path d="M411.947 275.043H261.135L225.82 292.692L261.135 310.34H411.947C421.511 310.34 429.603 302.251 429.603 292.692C429.603 283.132 422.248 275.043 411.947 275.043ZM388.405 286.073V300.047L280.997 300.044V286.07L388.405 286.073ZM250.093 292.692L264.073 286.073H270.694V300.047H264.073L250.093 292.692ZM411.947 299.31H399.442V285.336H411.947C415.627 285.336 418.569 288.277 418.569 291.955C418.569 296.369 415.627 299.31 411.947 299.31V299.31Z" fill="#4450FF"></path> <path d="M406.065 0.742676H202.274C192.711 0.742676 184.618 8.83155 184.618 18.3909V131.642L18.3492 131.645C8.78606 131.645 0.693359 139.734 0.693359 149.293V455.21C0.693359 468.447 10.9935 478.743 24.2362 478.743H275.113C284.676 478.743 292.769 470.654 292.769 461.094L292.765 347.844H459.034C468.597 347.844 476.69 339.755 476.69 330.195L476.693 71.3442L406.065 0.742676ZM409.741 19.1276L458.298 67.6637H422.249C415.628 67.6637 409.743 61.7821 409.743 55.1633L409.741 19.1276ZM282.471 461.094C282.471 464.771 279.529 467.712 275.849 467.712H24.2386C17.6173 467.712 11.7328 461.831 11.7328 455.212V149.295C11.7328 145.617 14.6749 142.676 18.3541 142.676H184.623V324.315C184.623 337.552 194.923 347.847 208.166 347.847H281.734V461.098L282.471 461.094ZM459.772 336.815H208.896C202.275 336.815 196.39 330.933 196.39 324.315V18.3978C196.39 14.7201 199.332 11.7793 203.012 11.7793H399.441V55.9008C399.441 69.1379 409.741 79.4335 422.984 79.4335H467.125V330.927C466.387 333.871 463.445 336.812 459.766 336.812L459.772 336.815Z" fill="#4450FF"></path> <path d="M401.65 400.79L409.743 408.878L423.722 394.905V422.849C423.722 438.293 411.217 450.793 395.766 450.793L323.669 450.796V461.826H395.766C417.101 461.826 434.023 444.177 434.023 423.585V395.641L448.003 409.615L456.095 401.526L428.876 374.319L401.65 400.79Z" fill="#4450FF"></path> <path d="M72.057 79.4273L63.9646 71.3384L49.9849 85.3121L49.9883 56.6307C49.9883 41.1864 62.4941 28.6868 77.9443 28.6868H150.042V18.3911H77.9443C56.6097 18.3911 39.6873 36.0394 39.6873 56.6316V84.5755L25.7076 71.3384L17.6152 79.4273L44.8343 106.635L72.057 79.4273Z" fill="#4450FF"></path> <path d="M221.402 121.342H347.938V132.372H221.402V121.342Z" fill="#4450FF"></path> <path d="M35.2793 221.354H141.218V232.384H35.2793V221.354Z" fill="#4450FF"></path> <path d="M35.2793 270.622H116.206V281.652H35.2793V270.622Z" fill="#4450FF"></path> <path d="M35.2793 320.632H161.815V331.662H35.2793V320.632Z" fill="#4450FF"></path> <path d="M35.2793 369.899H211.847V380.929H35.2793V369.899Z" fill="#4450FF"></path> <path d="M35.2793 419.91H258.932V430.94H35.2793V419.91Z" fill="#4450FF"></path> <path d="M221.402 168.408H393.555V179.438H221.402V168.408Z" fill="#4450FF"></path> <path d="M221.402 215.473H439.906V226.503H221.402V215.473Z" fill="#4450FF"></path> </svg> 