<?xml version="1.0" encoding="UTF-8"?> <svg xmlns="http://www.w3.org/2000/svg" width="500" height="412" viewBox="0 0 500 412" fill="none"> <path d="M410.684 377.101H459.537L459.541 204.581H410.687L410.684 377.101ZM422.137 216.029H448.091V364.883H422.137V216.029Z" fill="#4450FF"></path> <path d="M351.913 377.102H400.767V238.171H351.913V377.102ZM363.362 249.619H389.317V364.883H363.362V249.619Z" fill="#4450FF"></path> <path d="M293.133 377.101H341.986V273.284H293.133V377.101ZM304.582 284.732H330.537V364.884H304.582V284.732Z" fill="#4450FF"></path> <path d="M233.591 377.102H282.444V305.347H233.591V377.102ZM245.04 316.031H270.995V364.884H245.04V316.031Z" fill="#4450FF"></path> <path d="M0 0V411.449H500V0H0ZM489.314 11.4494V61.0675H12.2185V11.4494H489.314ZM12.2185 399.233V71.7531H489.314V399.233H12.2185Z" fill="#4450FF"></path> <path d="M59.5469 30.5337H70.9963V41.9831H59.5469V30.5337Z" fill="#4450FF"></path> <path d="M32.8242 30.5337H44.2736V41.9831H32.8242V30.5337Z" fill="#4450FF"></path> <path d="M86.2617 30.5337H97.7111V41.9831H86.2617V30.5337Z" fill="#4450FF"></path> <path d="M291.601 100.001H36.6436V197.714H291.601V100.001ZM280.152 186.259H48.0894V111.451H280.152V186.259Z" fill="#4450FF"></path> <path d="M213.736 164.886C218.315 164.886 222.897 163.36 225.95 161.069L244.269 179.388L252.666 170.992L234.346 152.672C236.637 148.854 238.164 145.037 238.164 140.458C238.164 127.482 227.476 116.03 213.736 116.03C200.76 116.03 189.308 126.717 189.308 140.458C189.311 154.199 199.995 164.886 213.736 164.886L213.736 164.886ZM213.736 128.244C220.606 128.244 226.712 133.588 226.712 141.22C226.712 148.855 221.368 154.196 213.736 154.196C206.865 154.196 200.759 148.852 200.759 141.22C200.759 133.588 206.865 128.244 213.736 128.244Z" fill="#4450FF"></path> <path d="M254.963 260.304L261.072 270.227L427.478 165.647L422.899 187.023L434.349 189.311L441.984 149.619L401.527 141.984L400.001 153.433L419.847 157.251L254.963 260.304Z" fill="#4450FF"></path> </svg> 