<?xml version="1.0" encoding="UTF-8"?>
<svg xmlns="http://www.w3.org/2000/svg" width="1045" height="396" viewBox="0 0 1045 396" fill="none">
    <rect x="0.0610352" y="309.666" width="320.616" height="86.1192" rx="33.7155" fill="#DBDBFF"></rect>
    <rect x="0.0610352" y="195.465" width="224.994" height="86.1192" rx="33.7155" fill="#DBDBFF"></rect>
    <rect x="0.0605469" y="81.2629" width="133.121" height="86.1192" rx="33.7155" fill="#DBDBFF"></rect>
    <path fill-rule="evenodd" clip-rule="evenodd"
          d="M388.174 85.0071C388.174 103.618 373.064 118.706 354.425 118.706L133.181 118.706V114.962C133.181 96.3505 118.071 81.2631 99.4317 81.2631H67.5576L67.5576 66.2855C67.5576 47.6741 82.6676 32.5867 101.307 32.5867L354.425 32.5867C373.064 32.5867 388.174 47.6742 388.174 66.2855V85.0071ZM388.174 199.209C388.174 217.82 373.064 232.907 354.425 232.907L225.053 232.907V229.163C225.053 210.552 209.943 195.465 191.304 195.465H163.18L163.18 180.487C163.18 161.876 178.29 146.788 196.929 146.788L354.425 146.788C373.064 146.788 388.174 161.876 388.174 180.487V199.209ZM354.425 347.109C373.064 347.109 388.174 332.021 388.174 313.41V294.689C388.174 276.077 373.064 260.99 354.425 260.99L288.801 260.99C270.162 260.99 255.052 276.077 255.052 294.689L255.052 309.666H286.926C305.566 309.666 320.675 324.754 320.675 343.365V347.109L354.425 347.109Z"
          fill="white"></path>
    <path d="M559.483 59.1425C536.223 59.1425 518.491 71.1 511.121 89.0361V70.4101C511.121 63.7415 506.055 60.5222 501.219 60.5222C496.152 60.5222 491.086 63.9715 491.086 70.4101V212.902C491.086 219.571 496.152 223.02 501.219 223.02C506.285 223.02 511.121 219.571 511.121 212.902V154.112C520.333 171.819 538.066 182.166 558.562 182.166C594.948 182.166 618.899 155.952 618.899 120.999C618.899 86.2767 595.409 59.1425 559.483 59.1425ZM554.647 164.23C529.315 164.23 511.352 144.914 511.352 120.769C511.352 96.1646 529.545 77.0787 554.647 77.0787C580.21 77.0787 598.633 95.4748 598.633 120.769C598.633 145.834 580.21 164.23 554.647 164.23Z"
          fill="white"></path>
    <path d="M752.329 61.6711C747.263 61.6711 741.966 64.8904 741.966 71.559V87.6556C732.985 70.1793 715.252 59.6016 694.756 59.6016C658.369 59.6016 634.419 85.816 634.419 120.999C634.419 155.491 657.678 182.855 693.835 182.855C718.015 182.855 735.057 170.208 741.966 152.732V171.818C741.966 178.256 747.263 181.706 752.329 181.706C757.396 181.706 762.462 178.256 762.462 171.818V71.559C762.462 64.8904 757.396 61.6711 752.329 61.6711ZM698.44 164.919C673.108 164.919 654.685 146.523 654.685 121.229C654.685 95.9339 673.108 77.7677 698.44 77.7677C723.773 77.7677 741.966 96.8537 741.966 121.229C741.966 145.833 723.773 164.919 698.44 164.919Z"
          fill="white"></path>
    <path d="M791.997 171.588C791.997 178.026 797.064 181.476 802.13 181.476C806.967 181.476 812.033 178.026 812.033 171.588V10.6731C812.033 4.23442 807.197 0.785156 802.13 0.785156C797.064 0.785156 791.997 4.23442 791.997 10.6731V171.588Z"
          fill="white"></path>
    <path d="M969.762 59.6016C951.339 59.6016 937.752 68.3397 931.303 83.7464C925.316 66.7301 911.498 59.6016 896.299 59.6016C879.948 59.6016 867.972 67.4199 861.524 80.987V70.8692C861.524 64.4306 856.688 61.2112 851.622 61.2112C846.325 61.2112 841.258 64.6605 841.258 71.3291V171.358C841.258 177.797 846.325 181.476 851.391 181.476C856.458 181.476 861.524 177.797 861.524 171.358V112.26C861.985 90.1851 872.809 77.0779 890.541 77.0779C904.129 77.0779 916.795 85.1262 916.795 110.421V171.128C916.795 177.797 921.861 181.476 927.158 181.476C932.225 181.476 937.291 177.797 937.291 171.128V112.26C937.291 90.645 948.115 77.0779 966.078 77.0779C979.665 77.0779 992.331 85.1262 992.331 110.421V171.128C992.331 178.026 997.628 181.476 1002.46 181.476C1007.53 181.476 1012.83 178.026 1012.83 171.128V107.431C1012.83 73.6286 992.562 59.6016 969.762 59.6016Z"
          fill="white"></path>
    <path d="M608.669 238.629C603.603 238.629 598.306 241.848 598.306 248.517V264.613C589.325 247.137 571.592 236.559 551.096 236.559C514.709 236.559 490.759 262.774 490.759 297.956C490.759 332.449 514.018 359.813 550.175 359.813C574.356 359.813 591.397 347.166 598.306 329.689V348.775C598.306 355.214 603.603 358.663 608.669 358.663C613.736 358.663 618.802 355.214 618.802 348.775V248.517C618.802 241.848 613.736 238.629 608.669 238.629ZM554.781 341.877C529.448 341.877 511.025 323.481 511.025 298.186C511.025 272.891 529.448 254.725 554.781 254.725C580.113 254.725 598.306 273.811 598.306 298.186C598.306 322.791 580.113 341.877 554.781 341.877Z"
          fill="white"></path>
    <path d="M745.982 238.169C741.146 238.169 735.849 241.388 735.849 248.287V303.935C735.389 329.229 721.11 342.567 700.154 342.567C683.112 342.567 666.761 333.599 666.761 306.004V248.517C666.761 241.618 661.695 238.169 656.628 238.169C651.562 238.169 646.495 241.618 646.495 248.517V308.764C646.495 345.096 669.064 359.813 694.396 359.813C714.202 359.813 728.25 351.075 735.849 335.668V348.315C735.849 354.754 740.916 358.433 745.982 358.433C751.049 358.433 756.115 354.984 756.115 348.315V248.287C756.115 241.388 751.049 238.169 745.982 238.169Z"
          fill="white"></path>
    <path d="M814.772 239.089V214.024C814.772 207.355 809.705 204.136 804.869 204.136C800.033 204.136 794.736 207.355 794.736 214.024V239.089H784.143C779.767 239.089 776.082 242.768 776.082 247.137C776.082 251.276 779.767 254.955 784.143 254.955H794.736V348.545C794.736 354.984 799.803 358.433 804.869 358.433C809.705 358.433 814.772 354.984 814.772 348.545V254.955H832.965C837.11 254.955 841.025 251.506 841.025 247.137C841.025 242.768 837.341 239.089 832.965 239.089H814.772Z"
          fill="white"></path>
    <path d="M871.897 221.382C879.036 221.382 884.794 215.634 884.794 208.735C884.794 201.607 879.036 195.858 871.897 195.858C864.989 195.858 859.231 201.607 859.231 208.735C859.231 215.634 864.989 221.382 871.897 221.382ZM861.764 348.545C861.764 354.984 867.061 358.433 871.897 358.433C876.964 358.433 882.03 354.984 882.03 348.545V248.057C882.03 241.388 876.964 238.169 871.897 238.169C867.061 238.169 861.764 241.388 861.764 248.057V348.545Z"
          fill="white"></path>
    <path d="M1002.67 349.235C1006.12 346.936 1007.5 343.716 1007.5 340.497C1007.5 336.128 1004.74 331.989 1000.6 331.989C999.629 331.989 998.5 332.313 997.208 332.962C996.962 333.085 996.709 333.221 996.45 333.369C987.699 338.887 978.257 341.417 969.045 341.417C946.016 341.417 925.29 325.09 925.29 298.186C925.29 270.132 946.707 255.185 969.276 255.185C978.718 255.185 988.62 257.945 996.911 263.463C998.293 264.383 999.675 264.843 1001.06 264.843C1004.97 264.843 1007.97 261.164 1007.97 256.795C1007.97 253.576 1006.35 250.126 1002.67 247.597C992.305 240.698 979.409 237.019 966.743 237.019C936.113 237.019 905.254 257.255 905.254 298.186C905.254 339.117 936.113 359.583 966.743 359.583C979.409 359.583 992.075 356.134 1002.67 349.235Z"
          fill="white"></path>
    <path d="M1029.67 313.447C1026.82 323.897 1021.22 333.425 1013.42 341.075C1005.63 348.725 995.92 354.227 985.273 357.027L980.792 340.61C988.502 338.582 995.534 334.598 1001.18 329.058C1006.82 323.517 1010.88 316.616 1012.95 309.048L1029.67 313.447Z"
          fill="white"></path>
    <rect width="45.4198" height="13.5949" rx="6.79746"
          transform="matrix(0.966022 -0.258459 0.259179 0.965829 988.799 306.975)" fill="white"></rect>
    <rect width="43.9298" height="13.6125" rx="6.80015"
          transform="matrix(0.259179 0.965829 -0.966022 0.258459 1032.67 295.236)" fill="white"></rect>
</svg>