<?xml version="1.0" encoding="UTF-8"?>
<svg xmlns="http://www.w3.org/2000/svg" width="1561" height="297" viewBox="0 0 1561 297" fill="none">
    <rect y="226.08" width="261.603" height="70.2679" rx="27.5098" fill="#4450FF"></rect>
    <rect y="132.899" width="183.581" height="70.2679" rx="27.5098" fill="#4450FF"></rect>
    <rect y="39.717" width="108.619" height="70.2679" rx="27.5098" fill="#4450FF"></rect>
    <path fill-rule="evenodd" clip-rule="evenodd"
          d="M316.677 42.7718C316.677 57.9575 304.348 70.268 289.139 70.268L108.618 70.2679V67.2131C108.618 52.0274 96.2894 39.717 81.081 39.717H55.0737V42.7721C55.0737 43.102 55.0796 43.4306 55.0911 43.7577C55.0796 43.4305 55.0737 43.1018 55.0737 42.7718L55.0737 27.4961C55.0737 12.3104 67.4025 -2.65515e-06 82.6109 0L289.139 3.60568e-05C304.348 3.8712e-05 316.677 12.3105 316.677 27.4962V42.7718ZM316.677 135.953C316.677 151.139 304.348 163.449 289.139 163.449L183.58 163.449V160.394C183.58 145.209 171.252 132.898 156.043 132.898H133.096V120.678C133.096 105.492 145.424 93.1814 160.633 93.1814L289.139 93.1814C304.348 93.1814 316.677 105.492 316.677 120.678V135.953ZM289.139 256.631C304.348 256.631 316.677 244.32 316.677 229.135V213.859C316.677 198.673 304.348 186.363 289.139 186.363L235.595 186.363C220.387 186.363 208.058 198.673 208.058 213.859L208.058 226.08H234.065C249.273 226.08 261.602 238.39 261.602 253.576V256.631L289.139 256.631Z"
          fill="#FCB236"></path>
    <path d="M530.689 89.0825C507.43 89.0825 489.697 101.04 482.328 118.976V100.35C482.328 93.6816 477.261 90.4622 472.425 90.4622C467.358 90.4622 462.292 93.9115 462.292 100.35V242.842C462.292 249.511 467.358 252.96 472.425 252.96C477.491 252.96 482.328 249.511 482.328 242.842V184.052C491.539 201.759 509.272 212.106 529.768 212.106C566.155 212.106 590.105 185.892 590.105 150.939C590.105 116.217 566.615 89.0825 530.689 89.0825ZM525.853 194.17C500.521 194.17 482.558 174.854 482.558 150.709C482.558 126.105 500.751 107.019 525.853 107.019C551.416 107.019 569.839 125.415 569.839 150.709C569.839 175.774 551.416 194.17 525.853 194.17Z"
          fill="#4450FF"></path>
    <path d="M723.535 91.6112C718.469 91.6112 713.172 94.8305 713.172 101.499V117.596C704.191 100.119 686.458 89.5416 665.962 89.5416C629.575 89.5416 605.625 115.756 605.625 150.939C605.625 185.431 628.885 212.796 665.041 212.796C689.222 212.796 706.263 200.148 713.172 182.672V201.758C713.172 208.196 718.469 211.646 723.535 211.646C728.602 211.646 733.668 208.196 733.668 201.758V101.499C733.668 94.8305 728.602 91.6112 723.535 91.6112ZM669.647 194.859C644.314 194.859 625.891 176.463 625.891 151.169C625.891 125.874 644.314 107.708 669.647 107.708C694.979 107.708 713.172 126.794 713.172 151.169C713.172 175.773 694.979 194.859 669.647 194.859Z"
          fill="#4450FF"></path>
    <path d="M763.204 201.528C763.204 207.967 768.27 211.416 773.337 211.416C778.173 211.416 783.239 207.967 783.239 201.528V40.6131C783.239 34.1745 778.403 30.7252 773.337 30.7252C768.27 30.7252 763.204 34.1745 763.204 40.6131V201.528Z"
          fill="#4450FF"></path>
    <path d="M940.969 89.5416C922.545 89.5416 908.958 98.2798 902.51 113.687C896.522 96.6701 882.704 89.5416 867.505 89.5416C851.154 89.5416 839.179 97.36 832.73 110.927V100.809C832.73 94.3706 827.894 91.1513 822.828 91.1513C817.531 91.1513 812.464 94.6006 812.464 101.269V201.298C812.464 207.737 817.531 211.416 822.597 211.416C827.664 211.416 832.73 207.737 832.73 201.298V142.2C833.191 120.125 844.015 107.018 861.747 107.018C875.335 107.018 888.001 115.066 888.001 140.361V201.068C888.001 207.737 893.067 211.416 898.364 211.416C903.431 211.416 908.497 207.737 908.497 201.068V142.2C908.497 120.585 919.321 107.018 937.284 107.018C950.871 107.018 963.537 115.066 963.537 140.361V201.068C963.537 207.967 968.834 211.416 973.67 211.416C978.737 211.416 984.034 207.967 984.034 201.068V137.371C984.034 103.569 963.768 89.5416 940.969 89.5416Z"
          fill="#4450FF"></path>
    <path d="M1125.2 91.5663C1120.14 91.5663 1114.84 94.7856 1114.84 101.454V117.551C1105.86 100.075 1088.13 89.4968 1067.63 89.4968C1031.24 89.4968 1007.29 115.711 1007.29 150.894C1007.29 185.386 1030.55 212.751 1066.71 212.751C1090.89 212.751 1107.93 200.103 1114.84 182.627V201.713C1114.84 208.152 1120.14 211.601 1125.2 211.601C1130.27 211.601 1135.34 208.152 1135.34 201.713V101.454C1135.34 94.7856 1130.27 91.5663 1125.2 91.5663ZM1071.31 194.814C1045.98 194.814 1027.56 176.418 1027.56 151.124C1027.56 125.829 1045.98 107.663 1071.31 107.663C1096.65 107.663 1114.84 126.749 1114.84 151.124C1114.84 175.728 1096.65 194.814 1071.31 194.814Z"
          fill="#4450FF"></path>
    <path d="M1262.52 91.1064C1257.68 91.1064 1252.38 94.3258 1252.38 101.224V156.872C1251.92 182.167 1237.64 195.504 1216.69 195.504C1199.65 195.504 1183.29 186.536 1183.29 158.942V101.454C1183.29 94.5557 1178.23 91.1064 1173.16 91.1064C1168.09 91.1064 1163.03 94.5557 1163.03 101.454V161.701C1163.03 198.034 1185.6 212.751 1210.93 212.751C1230.73 212.751 1244.78 204.013 1252.38 188.606V201.253C1252.38 207.692 1257.45 211.371 1262.52 211.371C1267.58 211.371 1272.65 207.922 1272.65 201.253V101.224C1272.65 94.3258 1267.58 91.1064 1262.52 91.1064Z"
          fill="#4450FF"></path>
    <path d="M1331.3 92.0262V66.9616C1331.3 60.293 1326.24 57.0737 1321.4 57.0737C1316.57 57.0737 1311.27 60.293 1311.27 66.9616V92.0262H1300.68C1296.3 92.0262 1292.62 95.7054 1292.62 100.075C1292.62 104.214 1296.3 107.893 1300.68 107.893H1311.27V201.483C1311.27 207.922 1316.34 211.371 1321.4 211.371C1326.24 211.371 1331.3 207.922 1331.3 201.483V107.893H1349.5C1353.64 107.893 1357.56 104.444 1357.56 100.075C1357.56 95.7054 1353.87 92.0262 1349.5 92.0262H1331.3Z"
          fill="#4450FF"></path>
    <path d="M1388.43 74.32C1395.57 74.32 1401.33 68.5712 1401.33 61.6727C1401.33 54.5442 1395.57 48.7955 1388.43 48.7955C1381.52 48.7955 1375.76 54.5442 1375.76 61.6727C1375.76 68.5712 1381.52 74.32 1388.43 74.32ZM1378.3 201.483C1378.3 207.922 1383.59 211.371 1388.43 211.371C1393.5 211.371 1398.56 207.922 1398.56 201.483V100.994C1398.56 94.3257 1393.5 91.1064 1388.43 91.1064C1383.59 91.1064 1378.3 94.3257 1378.3 100.994V201.483Z"
          fill="#4450FF"></path>
    <path d="M1519.2 202.173C1522.66 199.873 1524.04 196.654 1524.04 193.435C1524.04 189.066 1521.27 184.927 1517.13 184.927C1516.16 184.927 1515.03 185.251 1513.74 185.899C1513.5 186.023 1513.24 186.159 1512.98 186.306C1504.23 191.825 1494.79 194.354 1485.58 194.354C1462.55 194.354 1441.82 178.028 1441.82 151.124C1441.82 123.07 1463.24 108.123 1485.81 108.123C1495.25 108.123 1505.15 110.882 1513.44 116.401C1514.83 117.321 1516.21 117.781 1517.59 117.781C1521.51 117.781 1524.5 114.102 1524.5 109.732C1524.5 106.513 1522.89 103.064 1519.2 100.534C1508.84 93.6359 1495.94 89.9567 1483.28 89.9567C1452.65 89.9567 1421.79 110.192 1421.79 151.124C1421.79 192.055 1452.65 212.521 1483.28 212.521C1495.94 212.521 1508.61 209.071 1519.2 202.173Z"
          fill="#4450FF"></path>
    <path d="M1546.21 166.384C1543.35 176.834 1537.75 186.363 1529.96 194.013C1522.16 201.663 1512.45 207.164 1501.81 209.964L1497.32 193.548C1505.04 191.52 1512.07 187.536 1517.71 181.995C1523.36 176.455 1527.42 169.554 1529.48 161.985L1546.21 166.384Z"
          fill="#4450FF"></path>
    <rect width="45.4198" height="13.5949" rx="6.79746"
          transform="matrix(0.966022 -0.258459 0.259179 0.965829 1505.33 159.913)" fill="#4450FF"></rect>
    <rect width="43.9298" height="13.6125" rx="6.80015"
          transform="matrix(0.259179 0.965829 -0.966022 0.258459 1549.21 148.173)" fill="#4450FF"></rect>
</svg>