<?xml version="1.0" encoding="UTF-8"?>
<svg xmlns="http://www.w3.org/2000/svg" width="1718" height="1018" viewBox="0 0 1718 1018" fill="none">
    <rect x="1718" y="1018" width="1718" height="1018" transform="rotate(-180 1718 1018)" fill="#4450FF"></rect>
    <rect x="337" y="619.881" width="320.616" height="86.1192" rx="33.7155" fill="#DBDBFF"></rect>
    <rect x="337" y="505.679" width="224.994" height="86.1192" rx="33.7155" fill="#DBDBFF"></rect>
    <rect x="337" y="391.478" width="133.121" height="86.1192" rx="33.7155" fill="#DBDBFF"></rect>
    <path fill-rule="evenodd" clip-rule="evenodd"
          d="M725.113 395.222C725.113 413.833 710.003 428.921 691.364 428.921L470.12 428.921V425.177C470.12 406.565 455.01 391.478 436.371 391.478H404.497L404.497 376.5C404.497 357.889 419.607 342.802 438.246 342.802L691.364 342.802C710.003 342.802 725.113 357.889 725.113 376.5V395.222ZM725.113 509.423C725.113 528.035 710.003 543.122 691.364 543.122L561.993 543.122V539.378C561.993 520.767 546.883 505.679 528.244 505.679H500.119L500.119 490.702C500.119 472.091 515.229 457.003 533.868 457.003L691.364 457.003C710.003 457.003 725.113 472.091 725.113 490.702V509.423ZM691.364 657.324C710.003 657.324 725.113 642.236 725.113 623.625V604.903C725.113 586.292 710.003 571.205 691.364 571.205L625.741 571.205C607.102 571.205 591.992 586.292 591.992 604.903L591.992 619.881H623.866C642.505 619.881 657.615 634.968 657.615 653.58V657.324L691.364 657.324Z"
          fill="white"></path>
    <path d="M896.423 369.357C873.163 369.357 855.43 381.315 848.061 399.251V380.625C848.061 373.956 842.994 370.737 838.158 370.737C833.092 370.737 828.025 374.186 828.025 380.625V523.117C828.025 529.786 833.092 533.235 838.158 533.235C843.225 533.235 848.061 529.786 848.061 523.117V464.327C857.273 482.033 875.005 492.381 895.501 492.381C931.888 492.381 955.839 466.167 955.839 431.214C955.839 396.492 932.348 369.357 896.423 369.357ZM891.586 474.445C866.254 474.445 848.291 455.129 848.291 430.984C848.291 406.379 866.484 387.294 891.586 387.294C917.149 387.294 935.573 405.69 935.573 430.984C935.573 456.049 917.149 474.445 891.586 474.445Z"
          fill="white"></path>
    <path d="M1089.27 371.886C1084.2 371.886 1078.91 375.105 1078.91 381.774V397.87C1069.92 380.394 1052.19 369.816 1031.7 369.816C995.309 369.816 971.358 396.031 971.358 431.213C971.358 465.706 994.618 493.07 1030.77 493.07C1054.95 493.07 1072 480.423 1078.91 462.947V482.033C1078.91 488.471 1084.2 491.921 1089.27 491.921C1094.34 491.921 1099.4 488.471 1099.4 482.033V381.774C1099.4 375.105 1094.34 371.886 1089.27 371.886ZM1035.38 475.134C1010.05 475.134 991.624 456.738 991.624 431.443C991.624 406.149 1010.05 387.983 1035.38 387.983C1060.71 387.983 1078.91 407.069 1078.91 431.443C1078.91 456.048 1060.71 475.134 1035.38 475.134Z"
          fill="white"></path>
    <path d="M1128.94 481.803C1128.94 488.241 1134 491.691 1139.07 491.691C1143.91 491.691 1148.97 488.241 1148.97 481.803V320.888C1148.97 314.449 1144.14 311 1139.07 311C1134 311 1128.94 314.449 1128.94 320.888V481.803Z"
          fill="white"></path>
    <path d="M1306.7 369.816C1288.28 369.816 1274.69 378.555 1268.24 393.961C1262.26 376.945 1248.44 369.816 1233.24 369.816C1216.89 369.816 1204.91 377.635 1198.46 391.202V381.084C1198.46 374.645 1193.63 371.426 1188.56 371.426C1183.26 371.426 1178.2 374.875 1178.2 381.544V481.573C1178.2 488.011 1183.26 491.691 1188.33 491.691C1193.4 491.691 1198.46 488.011 1198.46 481.573V422.475C1198.92 400.4 1209.75 387.293 1227.48 387.293C1241.07 387.293 1253.73 395.341 1253.73 420.636V481.343C1253.73 488.011 1258.8 491.691 1264.1 491.691C1269.16 491.691 1274.23 488.011 1274.23 481.343V422.475C1274.23 400.86 1285.05 387.293 1303.02 387.293C1316.6 387.293 1329.27 395.341 1329.27 420.636V481.343C1329.27 488.241 1334.57 491.691 1339.4 491.691C1344.47 491.691 1349.77 488.241 1349.77 481.343V417.646C1349.77 383.843 1329.5 369.816 1306.7 369.816Z"
          fill="white"></path>
    <path d="M945.609 548.844C940.542 548.844 935.246 552.063 935.246 558.731V574.828C926.264 557.352 908.531 546.774 888.035 546.774C851.649 546.774 827.698 572.988 827.698 608.171C827.698 642.664 850.958 670.028 887.114 670.028C911.295 670.028 928.337 657.381 935.246 639.904V658.99C935.246 665.429 940.542 668.878 945.609 668.878C950.675 668.878 955.742 665.429 955.742 658.99V558.731C955.742 552.063 950.675 548.844 945.609 548.844ZM891.72 652.092C866.388 652.092 847.964 633.696 847.964 608.401C847.964 583.106 866.388 564.94 891.72 564.94C917.052 564.94 935.246 584.026 935.246 608.401C935.246 633.006 917.052 652.092 891.72 652.092Z"
          fill="white"></path>
    <path d="M1082.92 548.384C1078.09 548.384 1072.79 551.603 1072.79 558.502V614.15C1072.33 639.444 1058.05 652.782 1037.09 652.782C1020.05 652.782 1003.7 643.813 1003.7 616.219V558.731C1003.7 551.833 998.634 548.384 993.568 548.384C988.501 548.384 983.435 551.833 983.435 558.731V618.979C983.435 655.311 1006 670.028 1031.34 670.028C1051.14 670.028 1065.19 661.29 1072.79 645.883V658.53C1072.79 664.969 1077.86 668.648 1082.92 668.648C1087.99 668.648 1093.05 665.199 1093.05 658.53V558.502C1093.05 551.603 1087.99 548.384 1082.92 548.384Z"
          fill="white"></path>
    <path d="M1151.71 549.303V524.239C1151.71 517.57 1146.64 514.351 1141.81 514.351C1136.97 514.351 1131.68 517.57 1131.68 524.239V549.303H1121.08C1116.71 549.303 1113.02 552.983 1113.02 557.352C1113.02 561.491 1116.71 565.17 1121.08 565.17H1131.68V658.76C1131.68 665.199 1136.74 668.648 1141.81 668.648C1146.64 668.648 1151.71 665.199 1151.71 658.76V565.17H1169.9C1174.05 565.17 1177.96 561.721 1177.96 557.352C1177.96 552.983 1174.28 549.303 1169.9 549.303H1151.71Z"
          fill="white"></path>
    <path d="M1208.84 531.597C1215.98 531.597 1221.73 525.848 1221.73 518.95C1221.73 511.821 1215.98 506.073 1208.84 506.073C1201.93 506.073 1196.17 511.821 1196.17 518.95C1196.17 525.848 1201.93 531.597 1208.84 531.597ZM1198.7 658.76C1198.7 665.199 1204 668.648 1208.84 668.648C1213.9 668.648 1218.97 665.199 1218.97 658.76V558.272C1218.97 551.603 1213.9 548.384 1208.84 548.384C1204 548.384 1198.7 551.603 1198.7 558.272V658.76Z"
          fill="white"></path>
    <path d="M1339.61 659.45C1343.06 657.151 1344.44 653.931 1344.44 650.712C1344.44 646.343 1341.68 642.204 1337.54 642.204C1336.57 642.204 1335.44 642.528 1334.15 643.176C1333.9 643.3 1333.65 643.436 1333.39 643.583C1324.64 649.102 1315.2 651.632 1305.98 651.632C1282.96 651.632 1262.23 635.305 1262.23 608.401C1262.23 580.347 1283.65 565.4 1306.22 565.4C1315.66 565.4 1325.56 568.159 1333.85 573.678C1335.23 574.598 1336.61 575.058 1338 575.058C1341.91 575.058 1344.9 571.379 1344.9 567.01C1344.9 563.79 1343.29 560.341 1339.61 557.812C1329.24 550.913 1316.35 547.234 1303.68 547.234C1273.05 547.234 1242.19 567.47 1242.19 608.401C1242.19 649.332 1273.05 669.798 1303.68 669.798C1316.35 669.798 1329.01 666.349 1339.61 659.45Z"
          fill="white"></path>
    <path d="M1366.61 623.662C1363.76 634.111 1358.16 643.64 1350.36 651.29C1342.57 658.94 1332.86 664.442 1322.21 667.242L1317.73 650.825C1325.44 648.797 1332.47 644.813 1338.12 639.272C1343.76 633.732 1347.82 626.831 1349.89 619.263L1366.61 623.662Z"
          fill="white"></path>
    <rect width="45.4198" height="13.5949" rx="6.79746"
          transform="matrix(0.966022 -0.258459 0.259179 0.965829 1325.74 617.19)" fill="white"></rect>
    <rect width="43.9298" height="13.6125" rx="6.80015"
          transform="matrix(0.259179 0.965829 -0.966022 0.258459 1369.61 605.451)" fill="white"></rect>
</svg>