<?xml version="1.0" encoding="UTF-8"?> <svg xmlns="http://www.w3.org/2000/svg" width="1718" height="1018" viewBox="0 0 1718 1018" fill="none"> <rect x="1718" y="1018" width="1718" height="1018" transform="rotate(-180 1718 1018)" fill="#4450FF"></rect> <path d="M874.132 610.036C856.348 610.036 843.712 620.02 837.94 634.216V577.12C837.94 574.78 836.224 573.688 834.664 573.688C832.948 573.688 831.232 574.78 831.232 577.12V687.88C831.232 690.064 832.948 691.312 834.664 691.312C836.224 691.312 837.94 690.064 837.94 687.88V668.848C844.18 683.2 856.816 692.56 873.976 692.56C898.156 692.56 915.16 675.244 915.16 651.532C915.16 627.82 898.312 610.036 874.132 610.036ZM873.04 686.476C852.604 686.476 838.096 670.72 838.096 651.376C838.096 631.72 852.604 616.12 873.04 616.12C893.476 616.12 908.296 630.784 908.296 651.376C908.296 671.656 893.476 686.476 873.04 686.476ZM1008.66 611.596C1007.1 611.596 1005.39 612.688 1005.39 615.028V633.748C999.149 619.396 986.357 610.036 969.353 610.036C945.173 610.036 928.169 627.352 928.169 651.064C928.169 674.776 945.017 692.56 969.197 692.56C986.981 692.56 999.617 682.576 1005.39 668.38V688.348C1005.39 690.532 1007.1 691.624 1008.66 691.624C1010.22 691.624 1012.1 690.532 1012.1 688.348V615.028C1012.1 612.688 1010.38 611.596 1008.66 611.596ZM970.289 686.476C949.853 686.476 935.033 671.656 935.033 651.22C935.033 630.784 949.853 616.12 970.289 616.12C990.725 616.12 1005.23 631.876 1005.23 651.22C1005.23 670.72 990.725 686.476 970.289 686.476ZM1060.82 692.56C1078.13 692.56 1089.37 685.072 1089.37 671.188C1089.37 642.484 1039.45 652.78 1039.45 630.472C1039.45 621.892 1047.56 615.808 1058.95 615.808C1068.77 615.808 1076.89 620.956 1080.47 630.316C1081.1 631.72 1082.03 632.344 1082.97 632.344C1084.37 632.344 1085.78 630.94 1085.78 628.912C1085.78 628.444 1085.62 627.976 1085.47 627.352C1081.72 616.588 1071.43 610.348 1058.95 610.348C1043.97 610.348 1032.89 618.46 1032.89 630.94C1032.89 658.24 1082.66 648.412 1082.66 671.5C1082.66 681.328 1074.23 686.944 1060.97 686.944C1048.34 686.944 1038.82 681.64 1035.23 670.72C1034.61 669.004 1033.52 668.224 1032.58 668.224C1031.02 668.224 1029.46 669.784 1029.46 671.968C1029.46 672.436 1029.62 673.06 1029.77 673.684C1033.99 686.008 1044.91 692.56 1060.82 692.56ZM1110.1 596.464C1113.07 596.464 1115.56 593.968 1115.56 591.004C1115.56 587.884 1113.07 585.388 1110.1 585.388C1106.98 585.388 1104.49 587.884 1104.49 591.004C1104.49 593.968 1106.98 596.464 1110.1 596.464ZM1106.67 687.88C1106.67 690.064 1108.39 691.312 1109.95 691.312C1111.66 691.312 1113.38 690.064 1113.38 687.88V614.56C1113.38 612.376 1111.66 611.284 1109.95 611.284C1108.39 611.284 1106.67 612.376 1106.67 614.56V687.88ZM1198.48 682.888C1199.57 681.952 1199.88 681.016 1199.88 680.08C1199.88 678.52 1198.79 677.116 1197.54 677.116C1196.92 677.116 1196.45 677.272 1195.98 677.74C1188.65 683.668 1180.38 686.32 1172.43 686.32C1154.33 686.32 1137.95 672.436 1137.95 651.22C1137.95 629.848 1154.8 616.276 1172.58 616.276C1180.85 616.276 1189.12 619.084 1196.3 625.168C1196.76 625.636 1197.39 625.792 1197.86 625.792C1199.26 625.792 1200.35 624.7 1200.35 623.14C1200.35 622.204 1199.88 621.112 1198.64 620.02C1190.84 613.312 1181.16 610.192 1171.8 610.192C1151.21 610.192 1131.24 625.324 1131.24 651.22C1131.24 677.428 1151.21 692.56 1171.96 692.56C1181.16 692.56 1190.68 689.44 1198.48 682.888Z" fill="#F8F8FF"></path> <rect x="337" y="619.881" width="320.616" height="86.1192" rx="33.7155" fill="#DBDBFF"></rect> <rect x="337" y="505.679" width="224.994" height="86.1192" rx="33.7155" fill="#DBDBFF"></rect> <rect x="337" y="391.478" width="133.121" height="86.1192" rx="33.7155" fill="#DBDBFF"></rect> <path fill-rule="evenodd" clip-rule="evenodd" d="M725.113 395.222C725.113 413.833 710.003 428.921 691.364 428.921L470.12 428.921V425.177C470.12 406.565 455.01 391.478 436.371 391.478H404.497L404.497 376.5C404.497 357.889 419.607 342.802 438.246 342.802L691.364 342.802C710.003 342.802 725.113 357.889 725.113 376.5V395.222ZM725.113 509.423C725.113 528.035 710.003 543.122 691.364 543.122L561.993 543.122V539.378C561.993 520.767 546.883 505.679 528.244 505.679H500.119L500.119 490.702C500.119 472.091 515.229 457.003 533.868 457.003L691.364 457.003C710.003 457.003 725.113 472.091 725.113 490.702V509.423ZM691.364 657.324C710.003 657.324 725.113 642.236 725.113 623.625V604.903C725.113 586.292 710.003 571.205 691.364 571.205L625.741 571.205C607.102 571.205 591.992 586.292 591.992 604.903L591.992 619.881H623.866C642.505 619.881 657.615 634.968 657.615 653.58V657.324L691.364 657.324Z" fill="white"></path> <path d="M876.851 352.482C860.318 352.482 847.713 360.982 842.474 373.731V360.491C842.474 355.751 838.873 353.463 835.435 353.463C831.834 353.463 828.232 355.915 828.232 360.491V461.778C828.232 466.519 831.834 468.97 835.435 468.97C839.037 468.97 842.474 466.519 842.474 461.778V419.989C849.022 432.575 861.627 439.931 876.196 439.931C902.061 439.931 919.086 421.297 919.086 396.451C919.086 371.77 902.388 352.482 876.851 352.482ZM873.413 427.181C855.407 427.181 842.638 413.451 842.638 396.288C842.638 378.798 855.57 365.231 873.413 365.231C891.584 365.231 904.68 378.308 904.68 396.288C904.68 414.105 891.584 427.181 873.413 427.181Z" fill="white"></path> <path d="M1013.93 354.279C1010.33 354.279 1006.56 356.568 1006.56 361.308V372.75C1000.18 360.327 987.576 352.808 973.007 352.808C947.142 352.808 930.117 371.442 930.117 396.451C930.117 420.969 946.651 440.42 972.352 440.42C989.54 440.42 1001.65 431.43 1006.56 419.008V432.575C1006.56 437.151 1010.33 439.603 1013.93 439.603C1017.53 439.603 1021.13 437.151 1021.13 432.575V361.308C1021.13 356.568 1017.53 354.279 1013.93 354.279ZM975.626 427.671C957.619 427.671 944.523 414.594 944.523 396.614C944.523 378.634 957.619 365.721 975.626 365.721C993.633 365.721 1006.56 379.288 1006.56 396.614C1006.56 414.104 993.633 427.671 975.626 427.671Z" fill="white"></path> <path d="M1042.13 432.411C1042.13 436.988 1045.73 439.44 1049.33 439.44C1052.77 439.44 1056.37 436.988 1056.37 432.411V318.029C1056.37 313.452 1052.93 311 1049.33 311C1045.73 311 1042.13 313.452 1042.13 318.029V432.411Z" fill="white"></path> <path d="M1168.49 352.808C1155.39 352.808 1145.73 359.02 1141.15 369.971C1136.89 357.875 1127.07 352.808 1116.27 352.808C1104.65 352.808 1096.13 358.366 1091.55 368.01V360.818C1091.55 356.241 1088.11 353.952 1084.51 353.952C1080.75 353.952 1077.14 356.404 1077.14 361.145V432.248C1077.14 436.824 1080.75 439.44 1084.35 439.44C1087.95 439.44 1091.55 436.824 1091.55 432.248V390.24C1091.88 374.548 1099.57 365.231 1112.18 365.231C1121.83 365.231 1130.84 370.952 1130.84 388.932V432.084C1130.84 436.824 1134.44 439.44 1138.2 439.44C1141.81 439.44 1145.41 436.824 1145.41 432.084V390.24C1145.41 374.875 1153.1 365.231 1165.87 365.231C1175.53 365.231 1184.53 370.952 1184.53 388.932V432.084C1184.53 436.988 1188.3 439.44 1191.73 439.44C1195.34 439.44 1199.1 436.988 1199.1 432.084V386.807C1199.1 362.779 1184.69 352.808 1168.49 352.808Z" fill="white"></path> <path d="M911.814 480.066C908.213 480.066 904.448 482.354 904.448 487.094V498.536C898.063 486.113 885.458 478.594 870.889 478.594C845.025 478.594 828 497.228 828 522.237C828 546.755 844.534 566.207 870.234 566.207C887.423 566.207 899.537 557.217 904.448 544.794V558.361C904.448 562.938 908.213 565.389 911.814 565.389C915.415 565.389 919.017 562.938 919.017 558.361V487.094C919.017 482.354 915.415 480.066 911.814 480.066ZM873.508 553.457C855.501 553.457 842.406 540.381 842.406 522.401C842.406 504.42 855.501 491.507 873.508 491.507C891.515 491.507 904.448 505.074 904.448 522.401C904.448 539.89 891.515 553.457 873.508 553.457Z" fill="white"></path> <path d="M1009.42 479.739C1005.98 479.739 1002.22 482.027 1002.22 486.931V526.487C1001.89 544.467 991.74 553.947 976.844 553.947C964.73 553.947 953.107 547.573 953.107 527.958V487.094C953.107 482.191 949.506 479.739 945.904 479.739C942.303 479.739 938.702 482.191 938.702 487.094V529.92C938.702 555.745 954.744 566.207 972.751 566.207C986.829 566.207 996.815 559.995 1002.22 549.044V558.034C1002.22 562.611 1005.82 565.226 1009.42 565.226C1013.02 565.226 1016.62 562.774 1016.62 558.034V486.931C1016.62 482.027 1013.02 479.739 1009.42 479.739Z" fill="white"></path> <path d="M1058.32 480.393V462.576C1058.32 457.836 1054.72 455.547 1051.28 455.547C1047.84 455.547 1044.08 457.836 1044.08 462.576V480.393H1036.55C1033.43 480.393 1030.82 483.008 1030.82 486.113C1030.82 489.056 1033.43 491.671 1036.55 491.671H1044.08V558.197C1044.08 562.774 1047.68 565.226 1051.28 565.226C1054.72 565.226 1058.32 562.774 1058.32 558.197V491.671H1071.25C1074.2 491.671 1076.98 489.219 1076.98 486.113C1076.98 483.008 1074.36 480.393 1071.25 480.393H1058.32Z" fill="white"></path> <path d="M1098.92 467.806C1104 467.806 1108.09 463.72 1108.09 458.816C1108.09 453.749 1104 449.663 1098.92 449.663C1094.01 449.663 1089.92 453.749 1089.92 458.816C1089.92 463.72 1094.01 467.806 1098.92 467.806ZM1091.72 558.197C1091.72 562.774 1095.49 565.226 1098.92 565.226C1102.52 565.226 1106.13 562.774 1106.13 558.197V486.767C1106.13 482.027 1102.52 479.739 1098.92 479.739C1095.49 479.739 1091.72 482.027 1091.72 486.767V558.197Z" fill="white"></path> <path d="M1191.88 558.688C1194.33 557.053 1195.32 554.765 1195.32 552.476C1195.32 549.371 1193.35 546.429 1190.41 546.429C1189.72 546.429 1188.92 546.659 1188 547.12C1187.82 547.208 1187.64 547.304 1187.46 547.409C1181.24 551.332 1174.53 553.13 1167.98 553.13C1151.61 553.13 1136.88 541.525 1136.88 522.401C1136.88 502.459 1152.1 491.834 1168.14 491.834C1174.85 491.834 1181.89 493.796 1187.79 497.719C1188.77 498.373 1189.75 498.7 1190.73 498.7C1193.52 498.7 1195.64 496.084 1195.64 492.979C1195.64 490.69 1194.5 488.238 1191.88 486.44C1184.51 481.537 1175.35 478.921 1166.34 478.921C1144.57 478.921 1122.63 493.305 1122.63 522.401C1122.63 551.496 1144.57 566.043 1166.34 566.043C1175.35 566.043 1184.35 563.591 1191.88 558.688Z" fill="white"></path> <path d="M1211.08 533.248C1209.05 540.676 1205.06 547.45 1199.52 552.887C1193.98 558.325 1187.08 562.236 1179.51 564.226L1176.33 552.557C1181.81 551.115 1186.81 548.283 1190.82 544.345C1194.83 540.407 1197.72 535.501 1199.19 530.121L1211.08 533.248Z" fill="white"></path> <rect width="32.2856" height="9.66364" rx="4.83182" transform="matrix(0.966022 -0.258459 0.259179 0.965829 1182.02 528.648)" fill="white"></rect> <rect width="31.2265" height="9.67612" rx="4.83373" transform="matrix(0.259179 0.965829 -0.966022 0.258459 1213.21 520.303)" fill="white"></rect> </svg> 