<?xml version="1.0" encoding="UTF-8"?> <svg xmlns="http://www.w3.org/2000/svg" width="2408" height="882" viewBox="0 0 2408 882" fill="none"> <rect x="2408" y="882" width="2408" height="882" transform="rotate(-180 2408 882)" fill="#4450FF"></rect> <rect x="392" y="539.342" width="312.82" height="84.0252" rx="32.8957" fill="#DBDBFF"></rect> <rect x="392" y="427.918" width="219.523" height="84.0252" rx="32.8957" fill="#DBDBFF"></rect> <rect x="392" y="316.493" width="129.884" height="84.0252" rx="32.8957" fill="#DBDBFF"></rect> <path fill-rule="evenodd" clip-rule="evenodd" d="M770.678 320.146C770.678 338.305 755.935 353.025 737.749 353.025L521.885 353.025V349.372C521.885 331.213 507.142 316.493 488.957 316.493H457.857L457.857 301.879C457.857 283.721 472.6 269 490.786 269L737.749 269C755.935 269 770.678 283.721 770.678 301.879V320.146ZM770.678 431.571C770.678 449.729 755.935 464.45 737.749 464.45L611.524 464.45V460.797C611.524 442.638 596.781 427.918 578.595 427.918H551.155V413.304C551.155 395.145 565.897 380.425 584.083 380.425L737.749 380.425C755.935 380.425 770.678 395.145 770.678 413.304V431.571ZM551.155 431.571C551.155 431.571 551.155 431.571 551.155 431.571C551.155 431.571 551.155 431.571 551.155 431.571L551.155 431.571ZM737.749 575.875C755.935 575.875 770.678 561.154 770.678 542.995V524.729C770.678 506.57 755.935 491.85 737.749 491.85L673.722 491.85C655.536 491.85 640.793 506.57 640.793 524.729L640.793 539.342H671.892C690.078 539.342 704.821 554.063 704.821 572.222V575.875L737.749 575.875Z" fill="white"></path> <path d="M984.689 316.357C961.43 316.357 943.697 328.315 936.328 346.251V327.625C936.328 320.956 931.261 317.737 926.425 317.737C921.358 317.737 916.292 321.186 916.292 327.625V470.117C916.292 476.786 921.358 480.235 926.425 480.235C931.491 480.235 936.328 476.786 936.328 470.117V411.327C945.539 429.033 963.272 439.381 983.768 439.381C1020.15 439.381 1044.11 413.167 1044.11 378.214C1044.11 343.492 1020.62 316.357 984.689 316.357ZM979.853 421.445C954.521 421.445 936.558 402.129 936.558 377.984C936.558 353.379 954.751 334.294 979.853 334.294C1005.42 334.294 1023.84 352.69 1023.84 377.984C1023.84 403.049 1005.42 421.445 979.853 421.445Z" fill="white"></path> <path d="M1177.54 318.886C1172.47 318.886 1167.17 322.105 1167.17 328.774V344.87C1158.19 327.394 1140.46 316.816 1119.96 316.816C1083.58 316.816 1059.62 343.031 1059.62 378.213C1059.62 412.706 1082.88 440.07 1119.04 440.07C1143.22 440.07 1160.26 427.423 1167.17 409.947V429.033C1167.17 435.471 1172.47 438.921 1177.54 438.921C1182.6 438.921 1187.67 435.471 1187.67 429.033V328.774C1187.67 322.105 1182.6 318.886 1177.54 318.886ZM1123.65 422.134C1098.31 422.134 1079.89 403.738 1079.89 378.443C1079.89 353.149 1098.31 334.983 1123.65 334.983C1148.98 334.983 1167.17 354.069 1167.17 378.443C1167.17 403.048 1148.98 422.134 1123.65 422.134Z" fill="white"></path> <path d="M1217.2 428.803C1217.2 435.241 1222.27 438.691 1227.34 438.691C1232.17 438.691 1237.24 435.241 1237.24 428.803V267.888C1237.24 261.449 1232.4 258 1227.34 258C1222.27 258 1217.2 261.449 1217.2 267.888V428.803Z" fill="white"></path> <path d="M1394.97 316.816C1376.55 316.816 1362.96 325.555 1356.51 340.961C1350.52 323.945 1336.7 316.816 1321.5 316.816C1305.15 316.816 1293.18 324.635 1286.73 338.202V328.084C1286.73 321.645 1281.89 318.426 1276.83 318.426C1271.53 318.426 1266.46 321.875 1266.46 328.544V428.573C1266.46 435.011 1271.53 438.691 1276.6 438.691C1281.66 438.691 1286.73 435.011 1286.73 428.573V369.475C1287.19 347.4 1298.01 334.293 1315.75 334.293C1329.33 334.293 1342 342.341 1342 367.636V428.343C1342 435.011 1347.07 438.691 1352.36 438.691C1357.43 438.691 1362.5 435.011 1362.5 428.343V369.475C1362.5 347.86 1373.32 334.293 1391.28 334.293C1404.87 334.293 1417.54 342.341 1417.54 367.636V428.343C1417.54 435.241 1422.83 438.691 1427.67 438.691C1432.74 438.691 1438.03 435.241 1438.03 428.343V364.646C1438.03 330.843 1417.77 316.816 1394.97 316.816Z" fill="white"></path> <path d="M1579.2 318.841C1574.14 318.841 1568.84 322.06 1568.84 328.729V344.826C1559.86 327.349 1542.13 316.772 1521.63 316.772C1485.24 316.772 1461.29 342.986 1461.29 378.169C1461.29 412.661 1484.55 440.025 1520.71 440.025C1544.89 440.025 1561.93 427.378 1568.84 409.902V428.988C1568.84 435.426 1574.14 438.876 1579.2 438.876C1584.27 438.876 1589.34 435.426 1589.34 428.988V328.729C1589.34 322.06 1584.27 318.841 1579.2 318.841ZM1525.31 422.089C1499.98 422.089 1481.56 403.693 1481.56 378.398C1481.56 353.104 1499.98 334.938 1525.31 334.938C1550.65 334.938 1568.84 354.024 1568.84 378.398C1568.84 403.003 1550.65 422.089 1525.31 422.089Z" fill="white"></path> <path d="M1716.52 318.381C1711.68 318.381 1706.38 321.601 1706.38 328.499V384.147C1705.92 409.442 1691.64 422.779 1670.69 422.779C1653.65 422.779 1637.29 413.811 1637.29 386.217V328.729C1637.29 321.83 1632.23 318.381 1627.16 318.381C1622.09 318.381 1617.03 321.83 1617.03 328.729V388.976C1617.03 425.309 1639.6 440.025 1664.93 440.025C1684.73 440.025 1698.78 431.287 1706.38 415.881V428.528C1706.38 434.967 1711.45 438.646 1716.52 438.646C1721.58 438.646 1726.65 435.196 1726.65 428.528V328.499C1726.65 321.601 1721.58 318.381 1716.52 318.381Z" fill="white"></path> <path d="M1785.3 319.301V294.236C1785.3 287.568 1780.24 284.348 1775.4 284.348C1770.57 284.348 1765.27 287.568 1765.27 294.236V319.301H1754.68C1750.3 319.301 1746.62 322.98 1746.62 327.349C1746.62 331.488 1750.3 335.168 1754.68 335.168H1765.27V428.758C1765.27 435.196 1770.34 438.646 1775.4 438.646C1780.24 438.646 1785.3 435.196 1785.3 428.758V335.168H1803.5C1807.64 335.168 1811.56 331.718 1811.56 327.349C1811.56 322.98 1807.87 319.301 1803.5 319.301H1785.3Z" fill="white"></path> <path d="M1842.43 301.595C1849.57 301.595 1855.33 295.846 1855.33 288.947C1855.33 281.819 1849.57 276.07 1842.43 276.07C1835.52 276.07 1829.76 281.819 1829.76 288.947C1829.76 295.846 1835.52 301.595 1842.43 301.595ZM1832.3 428.758C1832.3 435.196 1837.59 438.646 1842.43 438.646C1847.5 438.646 1852.56 435.196 1852.56 428.758V328.269C1852.56 321.601 1847.5 318.381 1842.43 318.381C1837.59 318.381 1832.3 321.601 1832.3 328.269V428.758Z" fill="white"></path> <path d="M1973.2 429.448C1976.66 427.148 1978.04 423.929 1978.04 420.709C1978.04 416.34 1975.27 412.201 1971.13 412.201C1970.16 412.201 1969.03 412.526 1967.74 413.174C1967.5 413.298 1967.24 413.434 1966.98 413.581C1958.23 419.1 1948.79 421.629 1939.58 421.629C1916.55 421.629 1895.82 405.303 1895.82 378.398C1895.82 350.344 1917.24 335.398 1939.81 335.398C1949.25 335.398 1959.15 338.157 1967.44 343.676C1968.83 344.596 1970.21 345.056 1971.59 345.056C1975.51 345.056 1978.5 341.376 1978.5 337.007C1978.5 333.788 1976.89 330.339 1973.2 327.809C1962.84 320.911 1949.94 317.231 1937.28 317.231C1906.65 317.231 1875.79 337.467 1875.79 378.398C1875.79 419.33 1906.65 439.795 1937.28 439.795C1949.94 439.795 1962.61 436.346 1973.2 429.448Z" fill="white"></path> <path d="M2000.21 393.659C1997.35 404.109 1991.75 413.638 1983.96 421.288C1976.16 428.938 1966.45 434.439 1955.81 437.239L1951.32 420.823C1959.04 418.795 1966.07 414.81 1971.71 409.27C1977.36 403.73 1981.42 396.829 1983.48 389.26L2000.21 393.659Z" fill="white"></path> <rect width="45.4198" height="13.5949" rx="6.79746" transform="matrix(0.966022 -0.258459 0.259179 0.965829 1959.33 387.188)" fill="white"></rect> <rect width="43.9298" height="13.6125" rx="6.80015" transform="matrix(0.259179 0.965829 -0.966022 0.258459 2003.21 375.448)" fill="white"></rect> <path d="M1391.96 536.724C1390.71 513.792 1374.49 498.036 1352.18 498.036C1329.09 498.036 1312.24 516.288 1312.24 538.908C1312.24 564.18 1330.03 580.56 1353.27 580.56C1370.59 580.56 1381.98 571.044 1387.44 561.216C1387.9 560.436 1388.06 559.656 1388.06 558.876C1388.06 557.16 1386.81 555.756 1385.41 555.756C1384.32 555.756 1383.38 556.38 1382.44 557.94C1378.23 565.74 1369.03 574.788 1353.27 574.788C1334.4 574.788 1319.42 561.528 1319.11 540.468H1388.68C1390.71 540.468 1391.96 539.844 1391.96 537.192C1391.96 537.036 1391.96 536.88 1391.96 536.724ZM1352.18 503.652C1371.21 503.652 1384.47 517.692 1385.41 535.476H1319.11C1320.04 517.692 1333.93 503.652 1352.18 503.652ZM1447.29 498.036C1432.16 498.036 1421.71 505.368 1416.71 517.536V502.716C1416.71 500.376 1415 499.284 1413.28 499.284C1411.57 499.284 1409.85 500.376 1409.85 502.716V575.88C1409.85 578.064 1411.57 579.312 1413.28 579.312C1414.84 579.312 1416.71 578.064 1416.71 575.88V534.54C1417.03 516.132 1427.79 503.808 1445.73 503.808C1459.93 503.808 1472.41 511.452 1472.41 532.668V575.88C1472.41 578.064 1474.12 579.312 1475.84 579.312C1477.55 579.312 1479.27 578.064 1479.27 575.88V531.888C1479.27 507.552 1464.45 498.036 1447.29 498.036ZM1509.86 499.596V480.252C1509.86 477.912 1508.15 476.82 1506.43 476.82C1505.03 476.82 1503.16 477.912 1503.16 480.252V499.596H1494.73C1493.17 499.596 1491.92 500.844 1491.92 502.404C1491.92 503.808 1493.17 505.212 1494.73 505.212H1503.16V575.88C1503.16 578.064 1504.87 579.312 1506.43 579.312C1508.15 579.312 1509.86 578.064 1509.86 575.88V505.212H1522.97C1524.53 505.212 1525.78 503.808 1525.78 502.404C1525.78 500.844 1524.53 499.596 1522.97 499.596H1509.86ZM1610.88 536.724C1609.63 513.792 1593.41 498.036 1571.1 498.036C1548.01 498.036 1531.16 516.288 1531.16 538.908C1531.16 564.18 1548.95 580.56 1572.19 580.56C1589.51 580.56 1600.89 571.044 1606.35 561.216C1606.82 560.436 1606.98 559.656 1606.98 558.876C1606.98 557.16 1605.73 555.756 1604.33 555.756C1603.23 555.756 1602.3 556.38 1601.36 557.94C1597.15 565.74 1587.95 574.788 1572.19 574.788C1553.31 574.788 1538.34 561.528 1538.03 540.468H1607.6C1609.63 540.468 1610.88 539.844 1610.88 537.192C1610.88 537.036 1610.88 536.88 1610.88 536.724ZM1571.1 503.652C1590.13 503.652 1603.39 517.692 1604.33 535.476H1538.03C1538.96 517.692 1552.85 503.652 1571.1 503.652ZM1662 499.128C1648.89 498.348 1639.84 503.496 1635.48 513.48V502.56C1635.48 500.376 1633.76 499.284 1632.2 499.284C1630.48 499.284 1628.77 500.376 1628.77 502.56V575.88C1628.77 578.064 1630.48 579.312 1632.2 579.312C1633.76 579.312 1635.48 578.064 1635.48 575.88V527.052C1635.48 513.948 1643.43 505.056 1658.41 505.056C1659.5 505.056 1660.75 505.056 1661.84 505.212C1664.34 505.368 1665.9 503.964 1665.9 502.248C1665.9 500.688 1664.96 499.284 1662 499.128ZM1722.4 498.036C1704.61 498.036 1691.98 508.02 1686.21 522.216V502.56C1686.21 500.376 1684.49 499.284 1682.93 499.284C1681.21 499.284 1679.5 500.376 1679.5 502.56V612.228C1679.5 614.412 1681.21 615.504 1682.93 615.504C1684.65 615.504 1686.21 614.412 1686.21 612.228V556.848C1692.45 571.2 1705.08 580.56 1722.24 580.56C1746.42 580.56 1763.43 563.244 1763.43 539.532C1763.43 515.82 1746.58 498.036 1722.4 498.036ZM1721.31 574.476C1700.87 574.476 1686.36 558.72 1686.36 539.376C1686.36 519.72 1700.87 504.12 1721.31 504.12C1741.74 504.12 1756.56 518.784 1756.56 539.376C1756.56 559.656 1741.74 574.476 1721.31 574.476ZM1814.49 499.128C1801.39 498.348 1792.34 503.496 1787.97 513.48V502.56C1787.97 500.376 1786.26 499.284 1784.7 499.284C1782.98 499.284 1781.26 500.376 1781.26 502.56V575.88C1781.26 578.064 1782.98 579.312 1784.7 579.312C1786.26 579.312 1787.97 578.064 1787.97 575.88V527.052C1787.97 513.948 1795.93 505.056 1810.9 505.056C1812 505.056 1813.24 505.056 1814.34 505.212C1816.83 505.368 1818.39 503.964 1818.39 502.248C1818.39 500.688 1817.46 499.284 1814.49 499.128ZM1835.43 484.464C1838.39 484.464 1840.89 481.968 1840.89 479.004C1840.89 475.884 1838.39 473.388 1835.43 473.388C1832.31 473.388 1829.81 475.884 1829.81 479.004C1829.81 481.968 1832.31 484.464 1835.43 484.464ZM1831.99 575.88C1831.99 578.064 1833.71 579.312 1835.27 579.312C1836.99 579.312 1838.7 578.064 1838.7 575.88V502.56C1838.7 500.376 1836.99 499.284 1835.27 499.284C1833.71 499.284 1831.99 500.376 1831.99 502.56V575.88ZM1887.3 580.56C1904.62 580.56 1915.85 573.072 1915.85 559.188C1915.85 530.484 1865.93 540.78 1865.93 518.472C1865.93 509.892 1874.04 503.808 1885.43 503.808C1895.26 503.808 1903.37 508.956 1906.96 518.316C1907.58 519.72 1908.52 520.344 1909.45 520.344C1910.86 520.344 1912.26 518.94 1912.26 516.912C1912.26 516.444 1912.1 515.976 1911.95 515.352C1908.2 504.588 1897.91 498.348 1885.43 498.348C1870.45 498.348 1859.38 506.46 1859.38 518.94C1859.38 546.24 1909.14 536.412 1909.14 559.5C1909.14 569.328 1900.72 574.944 1887.46 574.944C1874.82 574.944 1865.3 569.64 1861.72 558.72C1861.09 557.004 1860 556.224 1859.06 556.224C1857.5 556.224 1855.94 557.784 1855.94 559.968C1855.94 560.436 1856.1 561.06 1856.26 561.684C1860.47 574.008 1871.39 580.56 1887.3 580.56ZM2008.34 536.724C2007.09 513.792 1990.87 498.036 1968.56 498.036C1945.47 498.036 1928.63 516.288 1928.63 538.908C1928.63 564.18 1946.41 580.56 1969.65 580.56C1986.97 580.56 1998.36 571.044 2003.82 561.216C2004.29 560.436 2004.44 559.656 2004.44 558.876C2004.44 557.16 2003.19 555.756 2001.79 555.756C2000.7 555.756 1999.76 556.38 1998.83 557.94C1994.61 565.74 1985.41 574.788 1969.65 574.788C1950.78 574.788 1935.8 561.528 1935.49 540.468H2005.07C2007.09 540.468 2008.34 539.844 2008.34 537.192C2008.34 537.036 2008.34 536.88 2008.34 536.724ZM1968.56 503.652C1987.59 503.652 2000.85 517.692 2001.79 535.476H1935.49C1936.43 517.692 1950.31 503.652 1968.56 503.652Z" fill="#F8F8FF"></path> </svg> 