<?xml version="1.0" encoding="UTF-8"?>
<svg xmlns="http://www.w3.org/2000/svg" width="2408" height="882" viewBox="0 0 2408 882" fill="none">
    <rect x="2408" y="882" width="2408" height="882" transform="rotate(-180 2408 882)" fill="#4450FF"></rect>
    <rect x="392" y="539.343" width="312.82" height="84.0252" rx="32.8957" fill="#DBDBFF"></rect>
    <rect x="392" y="427.918" width="219.523" height="84.0252" rx="32.8957" fill="#DBDBFF"></rect>
    <rect x="392" y="316.493" width="129.884" height="84.0252" rx="32.8957" fill="#DBDBFF"></rect>
    <path fill-rule="evenodd" clip-rule="evenodd"
          d="M770.678 320.146C770.678 338.305 755.935 353.025 737.749 353.025L521.885 353.025V349.372C521.885 331.213 507.142 316.493 488.957 316.493H457.857L457.857 301.879C457.857 283.721 472.6 269 490.786 269L737.749 269C755.935 269 770.678 283.721 770.678 301.879V320.146ZM770.678 431.571C770.678 449.729 755.935 464.45 737.749 464.45L611.524 464.45V460.797C611.524 442.638 596.781 427.918 578.595 427.918H551.155V413.304C551.155 395.145 565.897 380.425 584.083 380.425L737.749 380.425C755.935 380.425 770.678 395.145 770.678 413.304V431.571ZM551.155 431.571C551.155 431.571 551.155 431.571 551.155 431.571C551.155 431.571 551.155 431.571 551.155 431.571L551.155 431.571ZM737.749 575.875C755.935 575.875 770.678 561.154 770.678 542.995V524.729C770.678 506.57 755.935 491.85 737.749 491.85H673.722C655.536 491.85 640.793 506.57 640.793 524.729L640.793 539.342H671.892C690.078 539.342 704.821 554.063 704.821 572.222V575.875L737.749 575.875Z"
          fill="white"></path>
    <path d="M984.689 316.357C961.43 316.357 943.697 328.315 936.328 346.251V327.625C936.328 320.956 931.261 317.737 926.425 317.737C921.358 317.737 916.292 321.186 916.292 327.625V470.117C916.292 476.786 921.358 480.235 926.425 480.235C931.491 480.235 936.328 476.786 936.328 470.117V411.327C945.539 429.033 963.272 439.381 983.768 439.381C1020.15 439.381 1044.11 413.167 1044.11 378.214C1044.11 343.492 1020.62 316.357 984.689 316.357ZM979.853 421.445C954.521 421.445 936.558 402.129 936.558 377.984C936.558 353.379 954.751 334.294 979.853 334.294C1005.42 334.294 1023.84 352.69 1023.84 377.984C1023.84 403.049 1005.42 421.445 979.853 421.445Z"
          fill="white"></path>
    <path d="M1177.54 318.886C1172.47 318.886 1167.17 322.105 1167.17 328.774V344.87C1158.19 327.394 1140.46 316.816 1119.96 316.816C1083.58 316.816 1059.62 343.031 1059.62 378.213C1059.62 412.706 1082.88 440.07 1119.04 440.07C1143.22 440.07 1160.26 427.423 1167.17 409.947V429.033C1167.17 435.471 1172.47 438.921 1177.54 438.921C1182.6 438.921 1187.67 435.471 1187.67 429.033V328.774C1187.67 322.105 1182.6 318.886 1177.54 318.886ZM1123.65 422.134C1098.31 422.134 1079.89 403.738 1079.89 378.443C1079.89 353.149 1098.31 334.983 1123.65 334.983C1148.98 334.983 1167.17 354.069 1167.17 378.443C1167.17 403.048 1148.98 422.134 1123.65 422.134Z"
          fill="white"></path>
    <path d="M1217.2 428.803C1217.2 435.241 1222.27 438.691 1227.34 438.691C1232.17 438.691 1237.24 435.241 1237.24 428.803V267.888C1237.24 261.449 1232.4 258 1227.34 258C1222.27 258 1217.2 261.449 1217.2 267.888V428.803Z"
          fill="white"></path>
    <path d="M1394.97 316.816C1376.55 316.816 1362.96 325.555 1356.51 340.961C1350.52 323.945 1336.7 316.816 1321.5 316.816C1305.15 316.816 1293.18 324.635 1286.73 338.202V328.084C1286.73 321.645 1281.89 318.426 1276.83 318.426C1271.53 318.426 1266.46 321.875 1266.46 328.544V428.573C1266.46 435.011 1271.53 438.691 1276.6 438.691C1281.66 438.691 1286.73 435.011 1286.73 428.573V369.475C1287.19 347.4 1298.01 334.293 1315.75 334.293C1329.33 334.293 1342 342.341 1342 367.636V428.343C1342 435.011 1347.07 438.691 1352.36 438.691C1357.43 438.691 1362.5 435.011 1362.5 428.343V369.475C1362.5 347.86 1373.32 334.293 1391.28 334.293C1404.87 334.293 1417.54 342.341 1417.54 367.636V428.343C1417.54 435.241 1422.83 438.691 1427.67 438.691C1432.74 438.691 1438.03 435.241 1438.03 428.343V364.646C1438.03 330.843 1417.77 316.816 1394.97 316.816Z"
          fill="white"></path>
    <path d="M1579.2 318.841C1574.14 318.841 1568.84 322.06 1568.84 328.729V344.826C1559.86 327.349 1542.13 316.772 1521.63 316.772C1485.24 316.772 1461.29 342.986 1461.29 378.169C1461.29 412.661 1484.55 440.025 1520.71 440.025C1544.89 440.025 1561.93 427.378 1568.84 409.902V428.988C1568.84 435.426 1574.14 438.876 1579.2 438.876C1584.27 438.876 1589.34 435.426 1589.34 428.988V328.729C1589.34 322.06 1584.27 318.841 1579.2 318.841ZM1525.31 422.089C1499.98 422.089 1481.56 403.693 1481.56 378.398C1481.56 353.104 1499.98 334.938 1525.31 334.938C1550.65 334.938 1568.84 354.024 1568.84 378.398C1568.84 403.003 1550.65 422.089 1525.31 422.089Z"
          fill="white"></path>
    <path d="M1716.52 318.381C1711.68 318.381 1706.38 321.601 1706.38 328.499V384.147C1705.92 409.442 1691.64 422.779 1670.69 422.779C1653.65 422.779 1637.29 413.811 1637.29 386.217V328.729C1637.29 321.83 1632.23 318.381 1627.16 318.381C1622.09 318.381 1617.03 321.83 1617.03 328.729V388.976C1617.03 425.309 1639.6 440.025 1664.93 440.025C1684.73 440.025 1698.78 431.287 1706.38 415.881V428.528C1706.38 434.967 1711.45 438.646 1716.52 438.646C1721.58 438.646 1726.65 435.196 1726.65 428.528V328.499C1726.65 321.601 1721.58 318.381 1716.52 318.381Z"
          fill="white"></path>
    <path d="M1785.3 319.301V294.236C1785.3 287.568 1780.24 284.348 1775.4 284.348C1770.57 284.348 1765.27 287.568 1765.27 294.236V319.301H1754.68C1750.3 319.301 1746.62 322.98 1746.62 327.349C1746.62 331.488 1750.3 335.168 1754.68 335.168H1765.27V428.758C1765.27 435.196 1770.34 438.646 1775.4 438.646C1780.24 438.646 1785.3 435.196 1785.3 428.758V335.168H1803.5C1807.64 335.168 1811.56 331.718 1811.56 327.349C1811.56 322.98 1807.87 319.301 1803.5 319.301H1785.3Z"
          fill="white"></path>
    <path d="M1842.43 301.595C1849.57 301.595 1855.33 295.846 1855.33 288.947C1855.33 281.819 1849.57 276.07 1842.43 276.07C1835.52 276.07 1829.76 281.819 1829.76 288.947C1829.76 295.846 1835.52 301.595 1842.43 301.595ZM1832.3 428.758C1832.3 435.196 1837.59 438.646 1842.43 438.646C1847.5 438.646 1852.56 435.196 1852.56 428.758V328.269C1852.56 321.601 1847.5 318.381 1842.43 318.381C1837.59 318.381 1832.3 321.601 1832.3 328.269V428.758Z"
          fill="white"></path>
    <path d="M1973.2 429.448C1976.66 427.148 1978.04 423.929 1978.04 420.709C1978.04 416.34 1975.27 412.201 1971.13 412.201C1970.16 412.201 1969.03 412.526 1967.74 413.174C1967.5 413.298 1967.24 413.434 1966.98 413.581C1958.23 419.1 1948.79 421.629 1939.58 421.629C1916.55 421.629 1895.82 405.303 1895.82 378.398C1895.82 350.344 1917.24 335.398 1939.81 335.398C1949.25 335.398 1959.15 338.157 1967.44 343.676C1968.83 344.596 1970.21 345.056 1971.59 345.056C1975.51 345.056 1978.5 341.376 1978.5 337.007C1978.5 333.788 1976.89 330.339 1973.2 327.809C1962.84 320.911 1949.94 317.231 1937.28 317.231C1906.65 317.231 1875.79 337.467 1875.79 378.398C1875.79 419.33 1906.65 439.795 1937.28 439.795C1949.94 439.795 1962.61 436.346 1973.2 429.448Z"
          fill="white"></path>
    <path d="M2000.21 393.659C1997.35 404.109 1991.75 413.638 1983.96 421.288C1976.16 428.938 1966.45 434.439 1955.81 437.239L1951.32 420.823C1959.04 418.795 1966.07 414.81 1971.71 409.27C1977.36 403.73 1981.42 396.829 1983.48 389.26L2000.21 393.659Z"
          fill="white"></path>
    <rect width="45.4198" height="13.5949" rx="6.79746"
          transform="matrix(0.966022 -0.258459 0.259179 0.965829 1959.33 387.188)" fill="white"></rect>
    <rect width="43.9298" height="13.6125" rx="6.80015"
          transform="matrix(0.259179 0.965829 -0.966022 0.258459 2003.21 375.448)" fill="white"></rect>
    <path d="M1199.13 498.036C1181.35 498.036 1168.71 508.02 1162.94 522.216V502.56C1162.94 500.376 1161.22 499.284 1159.66 499.284C1157.95 499.284 1156.23 500.376 1156.23 502.56V612.228C1156.23 614.412 1157.95 615.504 1159.66 615.504C1161.38 615.504 1162.94 614.412 1162.94 612.228V556.848C1169.18 571.2 1181.82 580.56 1198.98 580.56C1223.16 580.56 1240.16 563.244 1240.16 539.532C1240.16 515.82 1223.31 498.036 1199.13 498.036ZM1198.04 574.476C1177.6 574.476 1163.1 558.72 1163.1 539.376C1163.1 519.72 1177.6 504.12 1198.04 504.12C1218.48 504.12 1233.3 518.784 1233.3 539.376C1233.3 559.656 1218.48 574.476 1198.04 574.476ZM1291.23 499.128C1278.12 498.348 1269.07 503.496 1264.71 513.48V502.56C1264.71 500.376 1262.99 499.284 1261.43 499.284C1259.71 499.284 1258 500.376 1258 502.56V575.88C1258 578.064 1259.71 579.312 1261.43 579.312C1262.99 579.312 1264.71 578.064 1264.71 575.88V527.052C1264.71 513.948 1272.66 505.056 1287.64 505.056C1288.73 505.056 1289.98 505.056 1291.07 505.212C1293.57 505.368 1295.13 503.964 1295.13 502.248C1295.13 500.688 1294.19 499.284 1291.23 499.128ZM1340.38 580.56C1363.93 580.56 1382.03 562.464 1382.03 539.22C1382.03 515.976 1363.93 498.036 1340.38 498.036C1316.82 498.036 1298.57 515.976 1298.57 539.22C1298.57 562.464 1316.82 580.56 1340.38 580.56ZM1340.38 574.476C1320.72 574.476 1305.28 558.876 1305.28 539.064C1305.28 519.564 1320.72 504.12 1340.38 504.12C1360.03 504.12 1375.32 519.564 1375.32 539.064C1375.32 558.876 1360.03 574.476 1340.38 574.476ZM1430.1 468.24C1432.44 468.708 1433.54 467.304 1433.54 465.744C1433.54 464.496 1432.76 462.936 1431.2 462.624C1428.54 462 1425.58 461.532 1422.62 461.532C1413.1 461.532 1403.74 466.056 1403.74 481.188V499.596H1396.72C1395.16 499.596 1393.91 500.844 1393.91 502.404C1393.91 503.808 1395.16 505.212 1396.72 505.212H1403.74V575.88C1403.74 577.752 1405.3 579.312 1407.17 579.312C1409.04 579.312 1410.6 577.752 1410.6 575.88V505.212H1429.64C1431.2 505.212 1432.44 503.808 1432.44 502.404C1432.44 500.844 1431.2 499.596 1429.64 499.596H1410.6V481.812C1410.29 470.58 1416.38 467.46 1423.4 467.46C1425.58 467.46 1427.92 467.772 1430.1 468.24ZM1516.76 536.724C1515.52 513.792 1499.29 498.036 1476.98 498.036C1453.9 498.036 1437.05 516.288 1437.05 538.908C1437.05 564.18 1454.83 580.56 1478.08 580.56C1495.39 580.56 1506.78 571.044 1512.24 561.216C1512.71 560.436 1512.86 559.656 1512.86 558.876C1512.86 557.16 1511.62 555.756 1510.21 555.756C1509.12 555.756 1508.18 556.38 1507.25 557.94C1503.04 565.74 1493.83 574.788 1478.08 574.788C1459.2 574.788 1444.22 561.528 1443.91 540.468H1513.49C1515.52 540.468 1516.76 539.844 1516.76 537.192C1516.76 537.036 1516.76 536.88 1516.76 536.724ZM1476.98 503.652C1496.02 503.652 1509.28 517.692 1510.21 535.476H1443.91C1444.85 517.692 1458.73 503.652 1476.98 503.652ZM1560.86 580.56C1578.18 580.56 1589.41 573.072 1589.41 559.188C1589.41 530.484 1539.49 540.78 1539.49 518.472C1539.49 509.892 1547.6 503.808 1558.99 503.808C1568.82 503.808 1576.93 508.956 1580.52 518.316C1581.14 519.72 1582.08 520.344 1583.01 520.344C1584.42 520.344 1585.82 518.94 1585.82 516.912C1585.82 516.444 1585.67 515.976 1585.51 515.352C1581.77 504.588 1571.47 498.348 1558.99 498.348C1544.01 498.348 1532.94 506.46 1532.94 518.94C1532.94 546.24 1582.7 536.412 1582.7 559.5C1582.7 569.328 1574.28 574.944 1561.02 574.944C1548.38 574.944 1538.87 569.64 1535.28 558.72C1534.65 557.004 1533.56 556.224 1532.63 556.224C1531.07 556.224 1529.51 557.784 1529.51 559.968C1529.51 560.436 1529.66 561.06 1529.82 561.684C1534.03 574.008 1544.95 580.56 1560.86 580.56ZM1632.92 580.56C1650.24 580.56 1661.47 573.072 1661.47 559.188C1661.47 530.484 1611.55 540.78 1611.55 518.472C1611.55 509.892 1619.66 503.808 1631.05 503.808C1640.88 503.808 1648.99 508.956 1652.58 518.316C1653.2 519.72 1654.14 520.344 1655.07 520.344C1656.48 520.344 1657.88 518.94 1657.88 516.912C1657.88 516.444 1657.72 515.976 1657.57 515.352C1653.82 504.588 1643.53 498.348 1631.05 498.348C1616.07 498.348 1605 506.46 1605 518.94C1605 546.24 1654.76 536.412 1654.76 559.5C1654.76 569.328 1646.34 574.944 1633.08 574.944C1620.44 574.944 1610.92 569.64 1607.34 558.72C1606.71 557.004 1605.62 556.224 1604.68 556.224C1603.12 556.224 1601.56 557.784 1601.56 559.968C1601.56 560.436 1601.72 561.06 1601.88 561.684C1606.09 574.008 1617.01 580.56 1632.92 580.56ZM1682.2 484.464C1685.17 484.464 1687.66 481.968 1687.66 479.004C1687.66 475.884 1685.17 473.388 1682.2 473.388C1679.08 473.388 1676.59 475.884 1676.59 479.004C1676.59 481.968 1679.08 484.464 1682.2 484.464ZM1678.77 575.88C1678.77 578.064 1680.49 579.312 1682.05 579.312C1683.76 579.312 1685.48 578.064 1685.48 575.88V502.56C1685.48 500.376 1683.76 499.284 1682.05 499.284C1680.49 499.284 1678.77 500.376 1678.77 502.56V575.88ZM1745.15 580.56C1768.71 580.56 1786.8 562.464 1786.8 539.22C1786.8 515.976 1768.71 498.036 1745.15 498.036C1721.6 498.036 1703.34 515.976 1703.34 539.22C1703.34 562.464 1721.6 580.56 1745.15 580.56ZM1745.15 574.476C1725.5 574.476 1710.05 558.876 1710.05 539.064C1710.05 519.564 1725.5 504.12 1745.15 504.12C1764.81 504.12 1780.1 519.564 1780.1 539.064C1780.1 558.876 1764.81 574.476 1745.15 574.476ZM1842.05 498.036C1826.92 498.036 1816.46 505.368 1811.47 517.536V502.716C1811.47 500.376 1809.76 499.284 1808.04 499.284C1806.32 499.284 1804.61 500.376 1804.61 502.716V575.88C1804.61 578.064 1806.32 579.312 1808.04 579.312C1809.6 579.312 1811.47 578.064 1811.47 575.88V534.54C1811.78 516.132 1822.55 503.808 1840.49 503.808C1854.68 503.808 1867.16 511.452 1867.16 532.668V575.88C1867.16 578.064 1868.88 579.312 1870.6 579.312C1872.31 579.312 1874.03 578.064 1874.03 575.88V531.888C1874.03 507.552 1859.21 498.036 1842.05 498.036ZM1970.77 499.596C1969.21 499.596 1967.49 500.688 1967.49 503.028V521.748C1961.25 507.396 1948.46 498.036 1931.45 498.036C1907.27 498.036 1890.27 515.352 1890.27 539.064C1890.27 562.776 1907.12 580.56 1931.3 580.56C1949.08 580.56 1961.72 570.576 1967.49 556.38V576.348C1967.49 578.532 1969.21 579.624 1970.77 579.624C1972.33 579.624 1974.2 578.532 1974.2 576.348V503.028C1974.2 500.688 1972.48 499.596 1970.77 499.596ZM1932.39 574.476C1911.95 574.476 1897.13 559.656 1897.13 539.22C1897.13 518.784 1911.95 504.12 1932.39 504.12C1952.83 504.12 1967.33 519.876 1967.33 539.22C1967.33 558.72 1952.83 574.476 1932.39 574.476ZM1996.71 575.88C1996.71 578.064 1998.43 579.312 2000.14 579.312C2001.7 579.312 2003.42 578.064 2003.42 575.88V465.12C2003.42 462.78 2001.7 461.688 2000.14 461.688C1998.43 461.688 1996.71 462.78 1996.71 465.12V575.88Z"
          fill="#F8F8FF"></path>
</svg>